<svg width="197" height="270" viewBox="0 0 197 270" fill="none" xmlns="http://www.w3.org/2000/svg">
<path d="M197 173.5C197 147.907 186.622 123.361 168.15 105.264C149.678 87.1669 124.624 77 98.5 77C72.3762 77 47.3223 87.1669 28.85 105.264C10.3777 123.361 3.94459e-06 147.907 0 173.5L44.2539 173.5C44.2539 159.405 49.9691 145.888 60.1422 135.921C70.3153 125.954 84.113 120.355 98.5 120.355C112.887 120.355 126.685 125.954 136.858 135.921C147.031 145.888 152.746 159.405 152.746 173.5H197Z" fill="white"/>
<path d="M92.9893 12.7964C95.0718 7.96062 101.928 7.96062 104.011 12.7964L134.298 83.1268C136.004 87.0872 133.1 91.5 128.788 91.5H68.2124C63.9004 91.5 60.9962 87.0872 62.7017 83.1268L92.9893 12.7964Z" fill="white"/>
</svg>
