<svg width="170" height="37" viewBox="0 0 170 37" fill="none" xmlns="http://www.w3.org/2000/svg">
<path d="M1.05 1.5C0.95 1.13333 2.63333 0.949998 6.1 0.949998C9.93333 0.949998 11.9 1.26666 12 1.9L14.45 22.95L19.75 1.65C19.9167 1.15 21.2167 0.899999 23.65 0.899999C26.0833 0.899999 27.3833 1.13333 27.55 1.6L32.75 23.05L35.65 1.8C35.7167 1.43333 36.4833 1.18333 37.95 1.05C39.4167 0.916665 40.6 0.85 41.5 0.85C45 0.85 46.7 1.08333 46.6 1.55L40.55 34.7C40.4167 35.2 39.4667 35.5667 37.7 35.8C35.9333 36.0333 34.5 36.15 33.4 36.15C29.2667 36.15 27.1 35.6833 26.9 34.75L23.5 21L19.8 34.7C19.6667 35.3 18.5 35.7333 16.3 36C15.1667 36.1 14.0333 36.15 12.9 36.15L9.7 36C7.5 35.7667 6.33333 35.35 6.2 34.75L1.05 1.5ZM71.8984 36.1C68.9984 36.1 67.4318 35.6333 67.1984 34.7L65.5484 28.25H57.5984L56.1484 34.45C55.9484 35.4833 54.3484 36 51.3484 36C49.7484 36 48.5651 35.9167 47.7984 35.75C47.0318 35.55 46.6484 35.4 46.6484 35.3L55.4984 1.45C55.4984 1.18333 57.7818 1.05 62.3484 1.05C66.9151 1.05 69.1984 1.18333 69.1984 1.45L77.8484 35.35C77.8484 35.5833 77.0818 35.7667 75.5484 35.9C74.0151 36.0333 72.7984 36.1 71.8984 36.1ZM58.8484 21.9H64.0984L61.8484 11.55H61.5484L58.8484 21.9ZM82.4621 23.8C83.0954 24.3 84.1788 24.9833 85.7121 25.85C87.2788 26.7167 88.7621 27.15 90.1621 27.15C91.5954 27.15 92.3121 26.6 92.3121 25.5C92.3121 25 92.1121 24.5667 91.7121 24.2C91.3121 23.8 90.5788 23.35 89.5121 22.85C88.4454 22.35 87.6454 21.9667 87.1121 21.7C86.5788 21.4 85.8621 20.9333 84.9621 20.3C84.0954 19.6333 83.4288 18.95 82.9621 18.25C81.6288 16.35 80.9621 13.9333 80.9621 11C80.9621 8.06667 82.0454 5.6 84.2121 3.6C86.4121 1.56666 89.2788 0.549997 92.8121 0.549997C95.2121 0.549997 97.4288 0.816665 99.4621 1.35C101.495 1.85 102.545 2.51666 102.612 3.35C102.612 3.45 102.612 3.55 102.612 3.65C102.612 4.81666 102.245 6.3 101.512 8.1C100.779 9.86667 100.262 10.85 99.9621 11.05C97.8288 9.95 95.9121 9.4 94.2121 9.4C92.5454 9.4 91.7121 10 91.7121 11.2C91.7121 11.9333 92.3288 12.5833 93.5621 13.15C93.8288 13.2833 94.2121 13.4667 94.7121 13.7C95.2121 13.9333 95.7788 14.2167 96.4121 14.55C97.0788 14.85 97.7788 15.25 98.5121 15.75C99.2788 16.2167 100.095 16.85 100.962 17.65C102.729 19.3167 103.612 21.5167 103.612 24.25C103.612 27.8167 102.629 30.7333 100.662 33C98.6954 35.2667 95.6621 36.4333 91.5621 36.5C89.5621 36.5 87.7454 36.3333 86.1121 36C84.5121 35.6667 83.1121 35.0167 81.9121 34.05C80.7121 33.0833 80.1121 31.9167 80.1121 30.55C80.1121 29.1833 80.3621 27.8333 80.8621 26.5C81.3621 25.1333 81.8954 24.2333 82.4621 23.8ZM122.575 36.5C117.908 36.5 114.091 34.9667 111.125 31.9C108.191 28.8333 106.725 24.3667 106.725 18.5C106.725 12.6 108.208 8.13333 111.175 5.1C114.175 2.06666 118.025 0.549997 122.725 0.549997C127.458 0.549997 131.275 2.05 134.175 5.05C137.075 8.01667 138.525 12.5333 138.525 18.6C138.525 24.6333 137.041 29.1333 134.075 32.1C131.108 35.0333 127.275 36.5 122.575 36.5ZM122.625 10.15C121.025 10.15 119.675 10.8833 118.575 12.35C117.508 13.8167 116.975 15.8833 116.975 18.55C116.975 21.1833 117.491 23.2167 118.525 24.65C119.558 26.05 120.908 26.75 122.575 26.75C124.275 26.75 125.641 26.0333 126.675 24.6C127.741 23.1667 128.275 21.1167 128.275 18.45C128.275 15.7833 127.725 13.7333 126.625 12.3C125.558 10.8667 124.225 10.15 122.625 10.15ZM169.939 34.9C169.939 35.6 168.372 35.95 165.239 35.95C162.106 35.95 160.406 35.7 160.139 35.2L151.789 19.6V35.15C151.789 35.75 150.239 36.05 147.139 36.05C144.072 36.05 142.539 35.75 142.539 35.15V1.7C142.539 1.2 143.856 0.949998 146.489 0.949998C147.522 0.949998 148.722 1.05 150.089 1.25C151.489 1.41666 152.339 1.75 152.639 2.25L160.639 17.65V1.95C160.639 1.31666 162.189 0.999998 165.289 0.999998C168.389 0.999998 169.939 1.31666 169.939 1.95V34.9Z" fill="white"/>
</svg>
